PathFileType	4	(X/Y/Z)	/Users/itak/Documents/Research/Walk-IL/dataset/trc/00168_00008.trc
DataRate	CameraRate	NumFrames	NumMarkers	Units	OrigDataRate	OrigDataStartFrame	OrigNumFrames
100.000000	100.000000	4	53	mm	100.000000	354	709
Frame#	Time	RPSI			LPSI			L3			STRN			T10			C7			CLAV			RBAK			LBAK			LSHO			LUPA			LAEL			LAOL			LWTS			LWPS			LFRA			LIFD			LHPS			LHTS			RSHO			RUPA			RAEL			RAOL			RWTS			RWPS			RFRA			RIFD			RHTS			RHPS			RBHD			LFHD			RFHD			LBHD			LHIP			RHIP			RASI			LASI			LKNE			LTHI			LANK			LTIP			LTOE			LMT1			LMT5			LHEE			RKNE			RTHI			RANK			RTIP			RTOE			RMT1			RMT5			RHEE			
		X1	Y1	Z1	X2	Y2	Z2	X3	Y3	Z3	X4	Y4	Z4	X5	Y5	Z5	X6	Y6	Z6	X7	Y7	Z7	X8	Y8	Z8	X9	Y9	Z9	X10	Y10	Z10	X11	Y11	Z11	X12	Y12	Z12	X13	Y13	Z13	X14	Y14	Z14	X15	Y15	Z15	X16	Y16	Z16	X17	Y17	Z17	X18	Y18	Z18	X19	Y19	Z19	X20	Y20	Z20	X21	Y21	Z21	X22	Y22	Z22	X23	Y23	Z23	X24	Y24	Z24	X25	Y25	Z25	X26	Y26	Z26	X27	Y27	Z27	X28	Y28	Z28	X29	Y29	Z29	X30	Y30	Z30	X31	Y31	Z31	X32	Y32	Z32	X33	Y33	Z33	X34	Y34	Z34	X35	Y35	Z35	X36	Y36	Z36	X37	Y37	Z37	X38	Y38	Z38	X39	Y39	Z39	X40	Y40	Z40	X41	Y41	Z41	X42	Y42	Z42	X43	Y43	Z43	X44	Y44	Z44	X45	Y45	Z45	X46	Y46	Z46	X47	Y47	Z47	X48	Y48	Z48	X49	Y49	Z49	X50	Y50	Z50	X51	Y51	Z51	X52	Y52	Z52	X53	Y53	Z53	

355	3.54	-180.6398773193359	1060.03466796875	231.4744720458984	-179.3333435058594	1061.376342773438	107.5360794067383	-176.8686981201172	1099.628173828125	170.4713287353516	90.09034729003906	1298.949462890625	168.2715911865234	-202.7318572998047	1257.725463867188	157.8818817138672	-130.9972229003906	1524.960571289062	138.5575256347656	65.26982116699219	1412.828002929688	154.2813568115234	-204.6104278564453	1354.76611328125	251.1466369628906	-134.3365325927734	1496.026611328125	38.51389694213867	-54.93925857543945	1477.882934570312	-36.36882019042969	-88.05266571044922	1343.434936523438	-105.0093231201172	-79.69779968261719	1125.39013671875	-110.8993148803711	-125.4125823974609	1114.81201171875	-35.732666015625	37.78043746948242	898.2637329101562	-72.14521789550781	-44.04622268676758	872.8829956054688	-109.6449661254883	-63.73973846435547	1014.511169433594	-120.4081268310547	61.98291015625	716.2622680664062	-43.91858291625977	-19.53972434997559	804.2469482421875	-103.4796981811523	51.22015380859375	820.2892456054688	-90.38787078857422	-74.07858276367188	1507.052856445312	322.4873962402344	-98.69749450683594	1445.947021484375	394.5478210449219	-131.6278839111328	1167.749633789062	473.1931762695312	-134.0670318603516	1149.506958007812	376.739013671875	-18.66091537475586	927.0347290039062	484.0877380371094	-92.54344940185547	925.4999389648438	531.6063232421875	-113.3507843017578	1097.220092773438	499.822998046875	-27.23738098144531	737.07421875	485.0312194824219	-3.570173263549805	832.3269653320312	504.7698974609375	-75.97001647949219	840.01318359375	539.6889038085938	-72.78021240234375	1689.286743164062	210.2384490966797	80.2147216796875	1726.364379882812	61.32508087158203	90.80938720703125	1740.1787109375	189.935546875	-93.81398010253906	1682.907958984375	73.72323608398438	-84.583251953125	993.3016967773438	-13.2858943939209	-31.80714797973633	1015.283813476562	358.5191955566406	49.00519561767578	1040.303466796875	303.0133056640625	45.4766731262207	1028.81201171875	43.72289276123047	-21.34270668029785	485.91796875	1.81110692024231	-26.34041786193848	635.1570434570312	-13.28592586517334	-368.4286499023438	147.5844421386719	14.16431331634521	-188.2830200195312	316.4017028808594	-6.627503871917725	-180.9438323974609	44.12408065795898	15.38946533203125	-217.4214630126953	63.46098327636719	68.134521484375	-288.6241149902344	80.71597290039062	-32.88734436035156	-400.6747131347656	177.8228759765625	88.13124084472656	66.16075134277344	520.42919921875	324.2549438476562	51.47593688964844	790.517822265625	362.3299560546875	-16.26532936096191	39.77674102783203	328.1602172851562	84.73622894287109	397.5025329589844	306.3001403808594	208.6874237060547	42.98533248901367	299.6606140136719	155.3320922851562	39.07410430908203	252.6154174804688	95.61978149414062	38.82732009887695	365.9353942871094	-66.7325439453125	38.45261764526367	258.3803100585938	
356	3.55	-187.5109558105469	1059.271118164062	229.4079895019531	-186.2038269042969	1060.56982421875	105.3840026855469	-183.7770233154297	1098.811767578125	168.1778869628906	83.17925262451172	1298.059204101562	166.4656219482422	-209.5497894287109	1256.780029296875	155.1170959472656	-137.8676300048828	1524.0126953125	136.1335906982422	58.37043762207031	1411.93603515625	152.5182495117188	-211.7785491943359	1353.725708007812	248.3377838134766	-140.8263092041016	1495.165771484375	36.05850601196289	-61.08989715576172	1477.191162109375	-38.54143142700195	-93.73088073730469	1342.759887695312	-107.4240188598633	-84.68904876708984	1124.72119140625	-113.6376266479492	-130.9222259521484	1113.8974609375	-38.8596076965332	33.58684158325195	898.122314453125	-74.14479064941406	-47.85820388793945	872.3779907226562	-112.3324890136719	-68.03718566894531	1013.949279785156	-123.274284362793	58.46468353271484	716.243896484375	-45.88075256347656	-23.03385353088379	803.8580322265625	-106.0122375488281	47.51691055297852	820.2481689453125	-92.35990142822266	-81.64501953125	1505.993896484375	320.248291015625	-106.5799179077148	1444.874755859375	392.1207580566406	-140.1360168457031	1166.788818359375	470.7528991699219	-141.7765045166016	1148.455444335938	374.279296875	-26.67058944702148	926.401123046875	482.7611083984375	-101.0448608398438	924.6224975585938	529.5440673828125	-121.9915161132812	1096.292602539062	497.566650390625	-34.6092414855957	736.4107055664062	483.7047729492188	-11.49516487121582	831.7589111328125	503.650634765625	-84.27321624755859	839.1925048828125	537.8345336914062	-80.06869506835938	1687.933837890625	208.7174987792969	73.21435546875	1726.077758789062	60.36332702636719	83.44334411621094	1739.29345703125	189.0643005371094	-100.7516403198242	1682.181762695312	72.13490295410156	-91.60092163085938	992.0947875976562	-15.03985977172852	-38.50914764404297	1014.802429199219	356.3152770996094	42.20338439941406	1039.546630859375	300.5814208984375	38.47603225708008	1027.579467773438	41.39581298828125	-37.08309555053711	484.9249877929688	1.239300727844238	-39.58516693115234	633.919677734375	-14.31497097015381	-381.6606140136719	143.8419189453125	11.01097297668457	-202.6909790039062	314.3062744140625	-8.596695899963379	-194.8323516845703	42.43675231933594	14.42235374450684	-231.3359222412109	60.16118240356445	66.72076416015625	-301.6949157714844	76.42912292480469	-35.12623596191406	-414.4671325683594	174.617431640625	84.65060424804688	63.63421249389648	520.8309326171875	322.7912292480469	46.31678009033203	790.66943359375	360.4821472167969	-16.15849876403809	39.85457992553711	328.1311950683594	82.93747711181641	397.9671630859375	305.1693115234375	208.7842407226562	42.92665481567383	299.5963745117188	155.3978424072266	39.0254020690918	252.5643310546875	95.67474365234375	38.90887832641602	365.8485717773438	-66.66918182373047	38.44773864746094	258.3779602050781	
357	3.56	-194.5474700927734	1058.474975585938	227.2532653808594	-193.2476196289062	1059.722534179688	103.1578598022461	-190.8561553955078	1097.95654296875	165.7898101806641	76.18112182617188	1297.037963867188	164.5085296630859	-216.465087890625	1255.796630859375	152.2471313476562	-144.7589721679688	1523.011352539062	133.6211700439453	51.41226959228516	1410.92578125	150.6140441894531	-218.9950714111328	1352.650146484375	245.4505310058594	-147.36328125	1494.255493164062	33.50362777709961	-67.30944061279297	1476.424560546875	-40.82362365722656	-99.50434112548828	1342.00634765625	-109.9282760620117	-89.77294921875	1123.966796875	-116.4521255493164	-136.5199279785156	1112.90478515625	-42.04359436035156	29.33912086486816	897.9466552734375	-76.18360900878906	-51.68426513671875	871.80859375	-115.0306243896484	-72.4290771484375	1013.301879882812	-126.1662216186523	54.99138641357422	716.21875	-47.86548614501953	-26.50863647460938	803.4203491210938	-108.5574188232422	43.82084274291992	820.1907958984375	-94.33899688720703	-89.19918060302734	1504.850708007812	317.9000854492188	-114.4380111694336	1443.718505859375	389.5847473144531	-148.5974884033203	1165.713012695312	468.1913757324219	-149.4522247314453	1147.313110351562	371.7117614746094	-34.48304748535156	925.7216796875	481.2033386230469	-109.3412857055664	923.6216430664062	527.2655029296875	-130.5399475097656	1095.242553710938	495.1638793945312	-41.64908981323242	735.7018432617188	482.0630187988281	-19.16629600524902	831.1455688476562	502.2572021484375	-92.30174255371094	838.2481079101562	535.7206420898438	-87.35532379150391	1686.471435546875	207.1076812744141	66.22354888916016	1725.704711914062	59.32365417480469	76.08884429931641	1738.2890625	188.1141662597656	-107.6817474365234	1681.377075195312	70.45686340332031	-98.70645904541016	990.8150634765625	-16.7990608215332	-45.34433364868164	1014.266174316406	353.993408203125	35.2475700378418	1038.699584960938	298.0003356933594	31.27420425415039	1026.25146484375	38.92733001708984	-52.83634948730469	484.048095703125	0.730305552482605	-52.90557861328125	632.7438354492188	-15.36003112792969	-393.9490966796875	139.3281707763672	7.942479133605957	-216.6799621582031	311.9580078125	-10.45643329620361	-207.4627380371094	41.32700729370117	13.6740837097168	-243.9837341308594	56.92758560180664	65.52959442138672	-313.4767150878906	71.78101348876953	-37.22966766357422	-427.5003356933594	170.5191497802734	81.23284149169922	60.96625518798828	521.234375	321.2420349121094	40.99459838867188	790.7855224609375	358.4794311523438	-16.0350513458252	39.9512825012207	328.0775451660156	81.01887512207031	398.4452514648438	303.975830078125	208.8964233398438	42.85409164428711	299.537841796875	155.4614105224609	38.96175003051758	252.5205383300781	95.72920989990234	38.98967361450195	365.7589721679688	-66.59357452392578	38.444091796875	258.3796081542969	
358	3.57	-201.756591796875	1057.653198242188	225.0176086425781	-200.4801025390625	1058.832763671875	100.8633193969727	-198.1085662841797	1097.064086914062	163.3158264160156	69.09304809570312	1295.8857421875	162.3919067382812	-223.4858551025391	1254.781860351562	149.2757568359375	-151.6767425537109	1521.96533203125	131.0148773193359	44.39359664916992	1409.798583984375	148.5631256103516	-226.2693634033203	1351.547607421875	242.4832000732422	-153.9526214599609	1493.3017578125	30.84798622131348	-73.60323333740234	1475.588256835938	-43.21833419799805	-105.373291015625	1341.179565429688	-112.5259323120117	-94.96041870117188	1123.132690429688	-119.3407211303711	-142.2108764648438	1111.841918945312	-45.28326797485352	25.01338958740234	897.738037109375	-78.26939392089844	-55.54079818725586	871.1768798828125	-117.723518371582	-76.93549346923828	1012.570678710938	-129.0693664550781	51.54662704467773	716.1902465820312	-49.86582946777344	-29.99136734008789	802.9363403320312	-111.0994338989258	40.1124267578125	820.1171875	-96.32594299316406	-96.73654174804688	1503.622314453125	315.4424438476562	-122.2666244506836	1442.475830078125	386.9388732910156	-157.0054473876953	1164.522338867188	465.5104675292969	-157.1072387695312	1146.080200195312	369.03271484375	-42.1126823425293	924.9860229492188	479.4111022949219	-117.4286499023438	922.4970092773438	524.7799072265625	-138.98779296875	1094.069702148438	492.6161499023438	-48.38733673095703	734.9417114257812	480.1119079589844	-26.59090232849121	830.478271484375	500.5848999023438	-100.0569000244141	837.1814575195312	533.3568115234375	-94.63748931884766	1684.905395507812	205.4051818847656	59.24013519287109	1725.249267578125	58.20225143432617	68.74983978271484	1737.169799804688	187.0821380615234	-114.6028060913086	1680.498779296875	68.68590545654297	-105.8636093139648	989.447509765625	-18.5368537902832	-52.32382202148438	1013.681274414062	351.5594482421875	28.13193130493164	1037.769897460938	295.2794799804688	23.86670303344727	1024.8271484375	36.32194137573242	-68.56843566894531	483.2622985839844	0.2629438638687134	-66.24959564208984	631.6136474609375	-16.44046211242676	-405.2197265625	134.0513458251953	5.035128116607666	-230.2198181152344	309.342529296875	-12.16835308074951	-218.6050415039062	40.77737808227539	13.13097858428955	-255.1488800048828	53.96061706542969	64.56488800048828	-323.8140563964844	66.94493865966797	-39.14990997314453	-439.7177124023438	165.4596557617188	77.96726226806641	58.08664703369141	521.6412353515625	319.6122436523438	35.47627258300781	790.8656616210938	356.3255004882812	-15.89710426330566	40.06415557861328	327.9965209960938	78.92564392089844	398.9446105957031	302.7231140136719	209.0235900878906	42.76382827758789	299.48046875	155.5189666748047	38.87901306152344	252.4867706298828	95.78494262695312	39.06663131713867	365.6643981933594	-66.50917816162109	38.44220352172852	258.3831481933594	
